PathFileType	4	(X/Y/Z)	C:/Users/beibeiliu/ov580/test_trc/User3\sequence.19_training_dense_right.trc
DataRate	CameraRate	NumFrames	NumMarkers	Units	OrigDataRate	OrigDataStartFrame	OrigNumFrames
120	120	14	19	mm	120	1	80
Frame#	Time	ThumbCMC			ThumbMCP			ThumbIP			ThumbTip			IndexMCP			IndexPIP			IndexTip			MiddleMCP			MiddlePIP			MiddleTip			RingMCP			RingPIP			RingTip			PinkyMCP			PinkyPIP			PinkyTip			BackHand1			BackHand2			BackHand3	
		X0	Y0	Z0	X1	Y1	Z1	X2	Y2	Z2	X3	Y3	Z3	X4	Y4	Z4	X5	Y5	Z5	X6	Y6	Z6	X7	Y7	Z7	X8	Y8	Z8	X9	Y9	Z9	X10	Y10	Z10	X11	Y11	Z11	X12	Y12	Z12	X13	Y13	Z13	X14	Y14	Z14	X15	Y15	Z15	X16	Y16	Z16	X17	Y17	Z17	X18	Y18	Z18	
0	0	128.672	22.645	54.8209	103.965	15.7315	32.5946	88.6091	9.78458	7.1415	80.4855	2.73898	-12.9887	135.055	39.8285	-22.1092	125.141	34.3252	-50.6648	115.386	29.4936	-70.3451	163.177	36.6606	-30.1461	155.034	31.2403	-58.0843	151.458	16.2313	-87.7939	178.883	26.7762	-24.7734	177.845	21.4966	-51.4279	177.766	8.99213	-77.422	197.16	14.7542	-11.4683	202.686	8.01868	-33.9958	206.128	-2.67838	-53.6188	184.767	37.1511	27.3132	188.07	38.7108	58.5396	154.897	45.1136	45.7078	
1	0.00833333	124.742	22.5269	47.6383	106.634	14.0843	30.7801	88.8823	8.72054	3.041	76.0901	0.886211	-12.5604	133.576	37.6788	-24.5524	121.849	34.7401	-52.4881	117.142	26.3336	-76.6234	158.068	35.682	-31.3632	152.393	28.714	-64.2147	149.257	14.9783	-92.1838	175.086	26.4943	-29.093	181.026	19.885	-51.0555	175.153	8.39013	-79.2786	195.202	13.0636	-12.7833	202.119	6.60913	-37.0681	201.026	-3.90234	-58.4918	182.779	35.3351	24.8236	186.521	36.587	55.3909	152.77	45.3661	39.9503	
2	0.0166667	124.793	21.4147	50.7725	107.318	12.8691	26.2805	87.8905	7.3533	2.36899	79.3787	-0.030492	-15.9966	135.203	36.4767	-27.2769	123.257	34.6129	-50.9602	119.946	27.5068	-76.0344	158.975	33.948	-38.6769	153.544	27.7707	-65.9594	150.913	13.4239	-95.5886	179.04	24.2423	-29.9734	178.111	19.6804	-52.8881	177.095	7.27476	-79.9931	196.679	13.0209	-15.9848	203.275	5.28721	-36.1733	204.284	-2.64498	-56.9178	184.681	33.9793	21.3966	190.538	35.6825	50.173	156.009	44.0994	38.8867	
3	0.025	128.408	21.8116	44.1991	109.573	12.5711	26.0399	92.3177	6.30625	-1.58424	80.6925	-2.50195	-18.9309	139.34	37.5083	-28.518	129.115	35.2718	-58.6055	127.503	30.0421	-81.489	169.113	33.6236	-39.9693	163.853	27.5573	-70.4503	160.369	15.3072	-97.4156	183.346	25.7465	-34.5988	185.238	19.8838	-60.1377	182.259	9.21563	-83.922	202.079	12.5996	-17.5969	208.129	6.63647	-37.0778	211.887	-3.00464	-63.3511	187.62	35.9908	18.2455	193.883	33.68	49.6566	157.198	43.8778	31.9451	
4	0.0333333	135.774	24.5581	37.1898	118.917	13.2625	19.5492	100.167	5.81939	-4.78312	89.5363	-4.1134	-23.9221	151.029	41.4828	-37.4577	140.621	41.5926	-60.9006	139.554	36.0412	-86.252	175.351	39.1731	-40.9072	173.318	33.6977	-74.9513	170.216	25.171	-101.655	193.396	28.5993	-33.984	193.859	25.9594	-64.9058	195.051	16.9566	-90.724	213.528	14.785	-19.3103	219.73	11.0152	-45.9475	223.321	1.06734	-67.5921	197.351	37.57	16.8515	205.635	37.7537	45.0248	171.354	44.9381	30.388	
5	0.0416667	142.501	26.0019	30.3402	127.041	13.7857	13.0365	109.79	4.34291	-6.73523	98.4111	-5.24035	-26.0041	155.509	44.5876	-40.9507	152.222	44.0227	-69.0876	141.645	41.6156	-94.0358	185.098	42.7056	-46.1554	183.907	39.5642	-76.5301	178.259	31.3919	-105.149	200.069	34.3625	-42.0289	205.499	31.8189	-66.4448	202.169	23.7329	-91.4367	222.773	19.8381	-27.2644	226.078	16.9168	-47.0545	233.825	6.63925	-73.5392	207.848	39.8932	9.28953	208.747	40.9734	37.6525	177.071	48.367	21.4179	
6	0.05	147.407	28.0239	27.343	126.37	16.9131	10.5718	108.298	6.88423	-13.5922	99.0797	-4.11029	-30.2036	159.202	49.1941	-44.6719	149.411	48.9651	-72.4744	149.332	43.3465	-96.9012	184.465	48.8314	-50.5838	183.049	44.3692	-80.1474	179.722	33.5617	-110.39	206.17	39.1708	-45.5327	207.963	36.0805	-70.6151	206.437	26.7999	-95.5625	221.813	24.5039	-29.0564	230.702	18.4403	-53.7017	233.014	8.82861	-78.2717	207.041	45.8581	9.07205	208.947	44.4329	36.8287	177.172	51.9549	19.3145	
7	0.0583333	148.401	32.8096	30.2786	128.599	24.1014	7.33842	111.87	16.6458	-16.7577	101.982	8.14888	-37.7955	159.52	57.0703	-45.8237	153.822	52.3607	-75.8752	147.104	44.4629	-100.193	186.93	52.6688	-53.9433	181.634	47.3283	-83.3461	177.282	30.7372	-114.371	206.271	41.6051	-48.7831	206.448	37.2662	-74.8957	198.604	27.6714	-97.5813	221.37	26.9572	-31.1853	224.915	22.4257	-54.8508	226.89	10.3788	-80.5849	209.131	49.6583	3.54961	212.762	45.077	37.2187	178.516	56.7256	22.2632	
8	0.0666667	156.037	42.036	23.1495	133.737	39.4894	3.88906	120.094	37.173	-20.7336	109.387	31.7712	-43.043	171.176	62.4284	-49.1257	161.821	59.0239	-76.6471	154.856	46.945	-96.6722	194.233	54.2528	-54.7324	184.441	45.8955	-86.7155	172.278	31.1579	-107.351	207.7	41.2555	-46.9623	204.612	35.3307	-74.4349	194.092	19.5903	-100.47	222.535	22.665	-36.4407	218.972	17.4227	-60.9447	216.574	2.92617	-80.6903	219.963	43.8417	3.45353	221.091	37.906	32.3447	190.625	56.5411	21.8825	
9	0.075	167.09	55.2584	23.3934	149.568	60.5257	-3.52663	138.615	65.2033	-29.0109	131.468	63.5398	-54.7035	193.826	60.3438	-53.9141	180.758	59.5802	-78.203	164.399	43.7046	-99.3267	206.183	48.5196	-61.1209	192.792	38.459	-88.8318	172.046	26.3637	-106.736	216.542	28.7188	-50.5586	208.036	23.4028	-77.0564	189.528	10.8009	-98.0831	223.312	6.94883	-39.8043	215.832	3.77542	-63.331	202.273	-3.61514	-83.1059	223.168	31.7602	3.67841	225.146	24.0659	29.2815	208.156	52.7767	19.6325	
10	0.0833333	182.183	59.3853	15.8663	168.508	74.0035	-11.141	159.781	80.9283	-37.9682	156.733	76.8551	-63.2575	209.691	56.5012	-53.8842	194.256	53.197	-84.8585	177.348	40.7408	-99.2813	217.533	35.7171	-62.3088	203.965	29.2724	-87.8881	174.348	21.2167	-104.378	221.114	15.6553	-55.6357	210.406	11.0062	-79.0725	186.396	4.02678	-96.3127	219.769	-5.49756	-40.9801	210.911	-6.6658	-63.8545	190.729	-11.355	-84.1254	227.232	20.867	4.58371	224.932	15.6433	33.0318	215.376	46.3515	17.3074	
11	0.0916667	184.89	60.7817	17.9615	178.834	71.349	-10.7071	173.782	82.2679	-43.3319	169.645	80.1144	-68.2229	214.621	52.8545	-57.3995	200.711	47.6982	-85.1076	176.239	40.6709	-99.3252	221.365	32.8931	-59.6159	204.748	26.1341	-89.405	173.192	23.2959	-103.603	222.005	10.6499	-55.0114	209.28	4.84609	-78.6134	180.581	3.09453	-94.2893	216.928	-6.29	-44.0475	205.245	-13.2673	-66.423	183.875	-16.0929	-80.2896	229.401	13.4181	-0.193916	222.531	11.2404	31.2166	218.725	46.4105	12.7614	
12	0.1	186.739	62.0275	16.2667	181.146	71.6022	-12.0597	176.1	80.0399	-39.42	173.443	77.9288	-65.1367	217.141	49.9649	-60.1498	202.066	44.7775	-85.2437	179.231	43.3154	-97.6058	221.779	29.4527	-64.7413	202.532	21.2783	-90.0899	171.936	19.0526	-100.777	220.843	8.25453	-56.2229	205.478	0.259604	-80.8353	178.568	3.08474	-93.4975	215.794	-12.7546	-43.464	203.53	-14.9219	-65.0565	180.325	-14.4113	-78.7035	229.591	11.7676	1.61088	220.43	8.15261	30.1685	220.538	43.1512	16.6505	
13	0.108333	189.051	55.8661	13.0848	180.587	70.0346	-13.6538	177.622	76.5666	-41.2826	171.845	75.2341	-64.6513	217.78	42.8965	-56.6517	203.542	40.0193	-85.5502	174.78	37.7647	-99.3407	223.428	21.192	-60.3598	206.342	19.143	-88.7293	169.271	15.8444	-100.74	220.568	2.2038	-57.1708	206.61	3.31744	-79.9356	180.093	-1.2206	-91.1225	214.033	-17.1527	-40.1063	200.031	-18.8852	-65.9286	180.846	-15.5093	-77.203	226.632	8.33083	3.90927	220.486	4.83256	28.9422	220.786	40.5784	16.2337	
